PathFileType	4	(X/Y/Z)	Patient4_TMGait_0pt6_01_left_08.trc.trc
DataRate	CameraRate	NumFrames	NumMarkers	Units	OrigDataRate	OrigDataStartFrame	OrigNumFrames
80.000000000000	80.000000000000	6	33	mm	80.000000000000	124	       141
Frame#	Time	Sacral			L.Shoulder			Chest			R.Shoulder			Neck			R.ASIS			L.ASIS			R.Thigh.Superior			R.Thigh.Lateral			R.Thigh.Inferior			R.Patella			L.Thigh.Superior			L.Thigh.Lateral			L.Thigh.Inferior			L.Patella			L.Shank.Superior			L.Shank.Lateral			L.Shank.Inferior			R.Shank.Superior			R.Shank.Lateral			R.Shank.Inferior			R.Heel			R.Midfoot.Superior			R.Midfoot.Lateral			R.Toe			L.Heel			L.Midfoot.Lateral			L.Midfoot.Superior			L.Toe			L.Elbow			L.Wrist			R.Elbow			R.Wrist			
		X1	Y1	Z1	X2	Y2	Z2	X3	Y3	Z3	X4	Y4	Z4	X5	Y5	Z5	X6	Y6	Z6	X7	Y7	Z7	X8	Y8	Z8	X9	Y9	Z9	X10	Y10	Z10	X11	Y11	Z11	X12	Y12	Z12	X13	Y13	Z13	X14	Y14	Z14	X15	Y15	Z15	X16	Y16	Z16	X17	Y17	Z17	X18	Y18	Z18	X19	Y19	Z19	X20	Y20	Z20	X21	Y21	Z21	X22	Y22	Z22	X23	Y23	Z23	X24	Y24	Z24	X25	Y25	Z25	X26	Y26	Z26	X27	Y27	Z27	X28	Y28	Z28	X29	Y29	Z29	X30	Y30	Z30	X31	Y31	Z31	X32	Y32	Z32	X33	Y33	Z33	

124	11.217500000000	657.884582125823	992.857697647998	508.281357471306	784.839948085564	1435.239281635945	332.838386235967	910.608289788942	1364.589225768087	475.588405356658	845.199862580102	1423.591815843629	661.245928601927	785.560424854512	1485.347640151852	490.596780391456	891.764176685805	936.317296434148	608.509418754024	860.286170465482	956.463075780451	334.048366800778	891.944875347285	722.727986618179	580.913109276620	789.874770781785	626.784507916130	642.982078995249	848.743631541860	562.765488384342	560.771645443839	828.853826686595	475.316377221991	563.632965697254	940.775402345536	767.271348194750	366.034490639887	888.674899336786	634.943929481590	295.232671152774	993.701091004471	580.069073109429	354.428618975614	1017.386968453889	512.973357754940	355.447889045726	1002.494139207411	439.018261924995	348.194084430596	935.355685684347	307.996145488436	303.805979872276	1022.049157229804	211.081055384870	361.522337141792	789.073243796986	390.959263083506	570.661531492062	704.851592120726	297.458726903209	633.648211371321	729.849294913433	199.247962565946	566.772060506679	576.335144445150	42.030138690664	537.326633598014	749.474311428861	96.408578188004	569.567295550075	660.972433199233	35.962040387327	609.820909732511	868.796153606224	43.567626336579	595.241980329818	935.716651307925	38.896232217478	408.014248432837	1006.246458456050	39.014503666379	324.657294461211	1082.473918554619	110.346090561400	342.403884884448	1213.028151730288	71.690364819660	310.718663009486	662.092883661944	1106.038195804034	225.161627171268	642.766634789992	846.934563407673	220.721507032714	981.826602710718	1104.031249490858	758.496332865522	1208.924990423787	1181.241111554678	686.550978432676	
125	11.230000000000	657.958855973716	991.248337600287	505.509290501023	784.771683405803	1433.289670326308	329.630153318277	910.090079211816	1363.412333819467	473.196461721497	843.585956962188	1422.850223479738	658.386803752569	784.816083496461	1483.968899795071	487.259456536920	891.710109411478	934.763317631333	606.845182871179	861.326011561521	955.001718841818	332.461239088491	892.051789612883	720.894956889427	579.017921477563	789.757484954472	625.017216617021	640.738161058413	848.551379328250	560.769552241752	558.416791813661	828.190257987786	472.526776678342	561.140952185323	942.190029597014	765.530705495402	366.013335398422	890.125076109705	633.906525027953	294.669324858767	994.162798651661	578.580252962416	355.380854911264	1016.368808943239	510.307219225458	356.719271553135	1000.624750574512	436.148271993489	348.899470117607	931.403638827258	306.347745608690	303.943223704294	1015.480427445448	207.847482731382	362.911423242822	786.942603803828	388.821189864971	568.470883423661	701.506758516561	296.705657496161	632.010271096825	724.369484549781	198.023973822826	565.396669846896	568.759321058017	42.053987409144	537.190209597386	741.890459244845	96.136415478657	569.075302829697	653.400111048552	35.959879467428	609.695664500863	861.352657060419	43.075592983571	595.364487380289	924.787019059859	38.041504857806	408.830057617649	995.361036647737	37.276011136661	325.424313983119	1073.544134381230	106.239056202891	344.284835303073	1203.360037152960	64.254310828751	312.205921973833	663.684738115371	1103.201049356665	222.298121730839	645.793314629334	843.928109339340	218.375225914214	979.882480924288	1103.587920260898	757.543980511478	1205.190114591586	1183.568794944410	683.951562324722	
126	11.242500000000	658.018465104023	989.709804398594	502.772669666631	784.762162930921	1431.390488428746	326.300851477630	909.609081401104	1362.351025769397	470.735097601843	841.974422494807	1422.295573546988	655.427253260462	784.121273243894	1482.723398567381	483.780436174459	891.745727841704	933.272043555095	605.067996575154	862.298681804235	953.736000173596	330.851111395908	892.515421924645	719.149604212028	576.877668598592	790.170955404985	623.167276712972	638.237745825331	848.990560170112	558.776239503799	555.808406205204	828.282959326127	469.525998067659	558.496484801236	943.532796776262	763.954489690548	365.798333345526	891.452810028981	633.136722465322	293.877400289321	994.554557665650	577.321498982251	356.030336689703	1015.359827154433	508.055618356694	357.627725963600	998.885956080088	433.734739208992	349.257357168414	927.918431143349	305.053470003378	303.665430732067	1009.497224270348	205.197728615225	363.871441153459	785.294813472775	386.623150786472	566.120409056575	698.480793510045	296.084766047963	630.219017830784	719.090732653919	196.893363870069	563.972161186257	561.174906539656	42.374041152316	537.069955883537	734.433081542720	95.925607372478	568.583762170526	645.856585257270	36.090987183334	609.553604884332	853.968192288588	42.505836334308	595.491531260131	914.800478910711	37.480162247754	409.294758531731	985.426898002552	36.034459324013	325.833682280502	1065.197723275557	103.010744635103	345.704045307014	1194.377067722484	58.297270710426	313.313829273511	666.147580773845	1100.060663675248	219.209007463398	649.859840140300	840.619854108179	215.746097266583	977.206553145265	1102.996161111254	756.761970526045	1201.160255007685	1184.670489345986	681.489421032111	
127	11.255000000000	658.037497081782	988.319237958050	500.108132083144	784.772004127154	1429.617329022554	322.894914142771	909.152064155691	1361.456056027873	468.210264768949	840.415231380835	1421.990604066669	652.384770336710	783.467048647098	1481.672074899136	480.198183926937	891.834382725946	931.908514201935	603.169790612175	863.142095161035	952.751442582942	329.181716921227	893.305378832423	717.567591493038	574.490750197893	791.125174893214	621.290933048695	635.497017331648	850.103820936161	556.852744174349	552.974480234974	829.215558218995	466.377347040121	555.767461418252	944.769955600872	762.694643514062	365.268500298506	892.636829769498	632.681635140352	292.840520384157	994.870229502310	576.368828543993	356.266475102032	1014.406844578162	506.310296586160	358.097855750129	997.310867580144	431.825155208893	349.267491423509	924.904820815157	304.157244455451	303.007495029266	1004.091694021111	203.161539523322	364.429430126620	784.200849112186	384.427100580042	563.659540564850	695.829637948745	295.687295540060	628.305299479334	714.076158341812	195.950099554054	562.532068852561	553.617326834740	43.163280555303	536.969279363750	727.168309932183	95.810345726459	568.115193728338	638.367203669940	36.456811137861	609.399036884494	846.646111957513	41.862495206931	595.619141183343	905.790904399664	37.180418209379	409.484370510039	976.463975625743	35.257799278414	325.953424066501	1057.429587109886	100.692302390682	346.675859483992	1186.091784537197	53.920060186736	314.044836948166	669.468682867510	1096.711660855548	215.939602001805	654.965632343641	837.106321387138	212.861057053187	973.746791535957	1102.299406459247	756.120617876059	1196.838465221113	1184.534620271614	679.174745731670	
128	11.267500000000	658.001658475079	987.138046009282	497.532887583259	784.756945053955	1428.036654533268	319.456205757518	908.699521360804	1360.768254448899	465.628331443421	838.944338655206	1421.977509293731	649.278790357113	782.836071476889	1480.861908004102	476.552888002580	891.939362335537	930.733418253989	601.150181527265	863.817230869367	952.112609368202	327.415891732181	894.398513455375	716.224338400873	571.881777981419	792.634763065025	619.450035727195	632.552845671767	851.944683226585	555.071172155090	549.967799657495	831.078152860095	463.162833764101	553.041052939050	945.882114948343	761.853990563832	364.315806339099	893.626671826790	632.540249024541	291.566491170172	995.064827362890	575.731691740405	356.013905195924	1013.488901525376	505.078086704456	358.107256203607	995.853214054545	430.397528390248	348.967141808092	922.259865934260	303.646841754012	302.036989266332	999.142526447449	201.696035880763	364.648437507175	783.756058995317	382.299767057872	561.151844804310	693.638902175564	295.611072351563	626.308124645455	709.416722920937	195.297710632371	561.113524553536	546.151254587320	44.628100774555	536.883754732735	720.175386590878	95.827439972205	567.690037347574	630.970810782614	37.184927305894	609.234031281392	839.382537818234	41.158226543091	595.742061312611	897.644301805950	37.084148209610	409.474552103516	968.352489663368	34.868394785198	325.860035237315	1050.137995520822	99.210883663351	347.256265508281	1178.408368051749	51.039362375322	314.445108560503	673.604784130332	1093.260276795199	212.537018179086	661.112995608240	833.496771438566	209.754279189386	969.460104615807	1101.543641046864	755.585370909221	1192.211242905847	1183.144649372617	677.019063736513	
129	11.280000000000	657.908234245090	986.207040494013	495.042467077798	784.673452959915	1426.700890540022	316.022372421135	908.227081027895	1360.317679739357	462.996249855936	837.575428978143	1422.274287856755	646.129214072840	782.204344932271	1480.322841675575	472.881619905927	892.027551678492	929.796349684404	599.015913867651	864.310916211008	951.857446343378	325.523428589374	895.787366263862	715.189557964211	569.097875459707	794.725495316733	617.707989350303	629.459966988641	854.580101022679	553.504703142008	546.860983743743	833.965175779802	459.979328974438	550.413600323216	946.857500220925	761.465027582090	362.858871293395	894.324069058094	632.661392002089	290.087369306157	995.046536508030	575.355362156182	355.242545616977	1012.512977240163	504.292621925175	357.684460554795	994.392346179201	429.377305369958	348.416981237751	919.798008003119	303.461141842687	300.844816879487	994.458236057663	200.707859431578	364.611852239719	784.079739103296	380.310109842614	558.668145225083	692.025840923535	295.956314152933	624.269930397147	705.232537628155	195.044843772519	559.752488628843	538.877941209725	47.000131428026	536.796150996011	713.547116970680	96.017793476077	567.324841310582	623.723426370313	38.426119411867	609.053856139325	832.165991379127	40.413930697470	595.853791697930	890.157568592276	37.123108998912	409.334800663763	960.888923701844	34.765267412192	325.629067526391	1043.169268526357	98.422705083020	347.527451051337	1171.168010475066	49.437015241553	314.587014740378	678.486233838010	1089.817263255847	209.044648271963	668.309317218229	829.909094323476	206.465176788447	964.312128780013	1100.773964146371	755.117370999743	1187.242918088509	1180.477862579935	675.033986433767	
